<?xml version="1.0" standalone="no"?>
<!DOCTYPE svg PUBLIC "-//W3C//DTD SVG 20010904//EN"
 "http://www.w3.org/TR/2001/REC-SVG-20010904/DTD/svg10.dtd">
<svg version="1.0" xmlns="http://www.w3.org/2000/svg"
 width="96.000000pt" height="96.000000pt" viewBox="0 0 96.000000 96.000000"
 preserveAspectRatio="xMidYMid meet">
<metadata>
Created by potrace 1.16, written by Peter Selinger 2001-2019
</metadata>
<g transform="translate(0.000000,96.000000) scale(0.100000,-0.100000)"
fill="#000000" stroke="none">
<path d="M698 389 c-27 -10 -28 -13 -28 -90 l0 -79 35 0 c34 0 35 1 35 40 0
33 3 40 20 40 17 0 20 -7 20 -40 l0 -40 40 0 c33 0 40 -3 40 -20 0 -17 -7 -20
-40 -20 l-40 0 0 -40 c0 -33 -3 -40 -20 -40 -17 0 -20 7 -20 40 0 39 -1 40
-35 40 l-35 0 0 -78 c0 -47 5 -83 12 -90 7 -7 40 -12 77 -12 81 0 139 31 176
94 62 105 7 270 -97 292 -55 11 -115 13 -140 3z"/>
<path d="M563 320 l-37 -40 -204 0 -203 0 3 -77 3 -78 226 -3 226 -2 -10 40
c-13 47 2 116 33 160 40 56 13 55 -37 0z"/>
</g>
</svg>
