<?xml version="1.0" encoding="iso-8859-1"?>
<!-- Generator: Adobe Illustrator 19.0.0, SVG Export Plug-In . SVG Version: 6.00 Build 0)  -->
<svg version="1.1" id="Capa_1" xmlns="http://www.w3.org/2000/svg" xmlns:xlink="http://www.w3.org/1999/xlink" x="0px" y="0px"
	 viewBox="0 0 480 480" style="enable-background:new 0 0 480 480;" xml:space="preserve">
<g>
	<g>
		<path d="M240,144c-17.673,0-32,14.327-32,32v272c0,17.673,14.327,32,32,32c17.673,0,32-14.327,32-32V176
			C272,158.327,257.673,144,240,144z M256,448c0,8.837-7.163,16-16,16s-16-7.163-16-16V176c0-8.837,7.163-16,16-16s16,7.163,16,16
			V448z"/>
	</g>
</g>
<g>
	<g>
		<path d="M136,240c-17.673,0-32,14.327-32,32v176c0,17.673,14.327,32,32,32s32-14.327,32-32V272C168,254.327,153.673,240,136,240z
			 M152,448c0,8.837-7.163,16-16,16s-16-7.163-16-16V272c0-8.837,7.163-16,16-16s16,7.163,16,16V448z"/>
	</g>
</g>
<g>
	<g>
		<path d="M32,352c-17.673,0-32,14.327-32,32v64c0,17.673,14.327,32,32,32s32-14.327,32-32v-64C64,366.327,49.673,352,32,352z
			 M48,448c0,8.837-7.163,16-16,16s-16-7.163-16-16v-64c0-8.837,7.163-16,16-16s16,7.163,16,16V448z"/>
	</g>
</g>
<g>
	<g>
		<path d="M344,48c-17.673,0-32,14.327-32,32v368c0,17.673,14.327,32,32,32c17.673,0,32-14.327,32-32V80
			C376,62.327,361.673,48,344,48z M360,448c0,8.837-7.163,16-16,16s-16-7.163-16-16V80c0-8.837,7.163-16,16-16s16,7.163,16,16V448z"
			/>
	</g>
</g>
<g>
	<g>
		<path d="M448,0c-17.673,0-32,14.327-32,32v416c0,17.673,14.327,32,32,32c17.673,0,32-14.327,32-32V32C480,14.327,465.673,0,448,0z
			 M464,448c0,8.837-7.163,16-16,16s-16-7.163-16-16V32c0-8.837,7.163-16,16-16s16,7.163,16,16V448z"/>
	</g>
</g>
<g>
</g>
<g>
</g>
<g>
</g>
<g>
</g>
<g>
</g>
<g>
</g>
<g>
</g>
<g>
</g>
<g>
</g>
<g>
</g>
<g>
</g>
<g>
</g>
<g>
</g>
<g>
</g>
<g>
</g>
</svg>
