<svg height="512" viewBox="0 0 60 60" width="512" xmlns="http://www.w3.org/2000/svg"><g id="Page-1" fill="none" fill-rule="evenodd"><g id="004---Camera" fill="rgb(0,0,0)" fill-rule="nonzero"><path id="Shape" d="m57 20h-1.719l.531-2.126c1.2889656-.3623918 2.1817388-1.5350748 2.188-2.874v-12c0-1.65685425-1.3431458-3-3-3h-20c-1.6568542 0-3 1.34314575-3 3v12c.0062612 1.3389252.8990344 2.5116082 2.188 2.874l.531 2.126h-6.719v-2c0-1.1045695-.8954305-2-2-2h-4c-1.1045695 0-2 .8954305-2 2v2h-2v-2c0-1.1045695-.8954305-2-2-2h-10c-1.1045695 0-2 .8954305-2 2v2h-1c-1.65685425 0-3 1.3431458-3 3v34c0 1.6568542 1.34314575 3 3 3h54c1.6568542 0 3-1.3431458 3-3v-34c0-1.6568542-1.3431458-3-3-3zm-23-17c0-.55228475.4477153-1 1-1h20c.5522847 0 1 .44771525 1 1v12c0 .5522847-.4477153 1-1 1h-20c-.5522847 0-1-.4477153-1-1zm2.281 15h17.438l-.5 2h-16.438zm-14.281 0h4v2h-4zm-16 0h10v2h-10zm51 40h-54c-.55228475 0-1-.4477153-1-1v-3h3c.55228475 0 1-.4477153 1-1s-.44771525-1-1-1h-3v-2h3c.55228475 0 1-.4477153 1-1s-.44771525-1-1-1h-3v-2h3c.55228475 0 1-.4477153 1-1s-.44771525-1-1-1h-3v-2h3c.55228475 0 1-.4477153 1-1s-.44771525-1-1-1h-3v-8h15c.5522847 0 1-.4477153 1-1s-.4477153-1-1-1h-15v-7c0-.5522847.44771525-1 1-1h54c.5522847 0 1 .4477153 1 1v7h-15c-.5522847 0-1 .4477153-1 1s.4477153 1 1 1h15v8h-3c-.5522847 0-1 .4477153-1 1s.4477153 1 1 1h3v2h-3c-.5522847 0-1 .4477153-1 1s.4477153 1 1 1h3v2h-3c-.5522847 0-1 .4477153-1 1s.4477153 1 1 1h3v2h-3c-.5522847 0-1 .4477153-1 1s.4477153 1 1 1h3v3c0 .5522847-.4477153 1-1 1z"/><path id="Shape" d="m38 14h14c1.1045695 0 2-.8954305 2-2v-6c0-1.1045695-.8954305-2-2-2h-11c-.5522847 0-1 .44771525-1 1s.4477153 1 1 1h11v6h-14v-3c0-.55228475-.4477153-1-1-1s-1 .44771525-1 1v3c0 1.1045695.8954305 2 2 2z"/><path id="Shape" d="m30 28c-7.7319865 0-14 6.2680135-14 14s6.2680135 14 14 14 14-6.2680135 14-14c-.0082673-7.7285595-6.2714405-13.9917327-14-14zm0 26c-6.627417 0-12-5.372583-12-12s5.372583-12 12-12 12 5.372583 12 12c-.0071648 6.624447-5.375553 11.9928352-12 12z"/><path id="Shape" d="m30 32c-.5522847 0-1 .4477153-1 1s.4477153 1 1 1c4.418278 0 8 3.581722 8 8s-3.581722 8-8 8-8-3.581722-8-8c0-.5522847-.4477153-1-1-1s-1 .4477153-1 1c0 5.5228475 4.4771525 10 10 10s10-4.4771525 10-10-4.4771525-10-10-10z"/><path id="Shape" d="m12 25h-7c-.55228475 0-1 .4477153-1 1s.44771525 1 1 1h7c.5522847 0 1-.4477153 1-1s-.4477153-1-1-1z"/></g></g></svg>